<svg height="512" viewBox="0 0 58 58" width="512" xmlns="http://www.w3.org/2000/svg"><g id="Page-1" fill="none" fill-rule="evenodd"><g id="034---Meteor" fill-rule="nonzero"><path id="Shape" d="m27.33 48.58c-.5607039-.5189222-.8826672-1.2460528-.89-2.01-.04-1.63-.05-3.6-1.26-4.85-.85-.9-2.24-.86-3.04-1.84-.6606121-.846374-.8312384-1.9762995-.45-2.98.53-1.44 1.95-2.25 3.07-3.19.71-.57 1.4-1.16 2.1-1.74-1.1587177-1.2573451-2.5169607-2.3148826-4.02-3.13-1.010111 1.3465931-2.2996095 2.4587003-3.78 3.26-1.9713013.806815-4.1813329.8032214-6.15-.01-1.16-.59-2.52-1.11-3.27-2.25-.27618881-.4366356-.523388-.8909476-.74-1.36-1.971303.9194818-3.72366682 2.2490964-5.14 3.9l.01.01c.93.4 1.86.8 2.78 1.23.89.41 1.8.78 2.68 1.23.76289153.2863733 1.4430947.7570189 1.98 1.37.59.9-.01 1.66-.61 2.34-.6954724.7798604-1.14739547 1.7462805-1.3 2.78-.15502535 1.8791051-.21510178 3.7648377-.18 5.65-.05710615.7002331-.61022137 1.2575706-1.31 1.32-.7797692.0764051-1.503294.4399495-2.03 1.02-.36450524.6072428-.55800255 1.30176-.56 2.01-.10799024.7701649-.28196357 1.5296254-.52 2.27 3.55025401 3.4549019 8.5385852 5.0037423 13.4212968 4.1672145 4.8827115-.8365277 9.0709822-3.9575441 11.2687032-8.3972145-.7530649-.0463525-1.4730309-.3259509-2.06-.8zm-4.53 1.83c-.41.82-.88 1.68-1.93 1.69-.6320985-.003573-1.2115551-.3527819-1.51-.91-.36-.7-.09-1.49-.63-2.13-.5270427-.4793934-1.2606515-.659974-1.95-.48-.7133425.095709-1.4190886-.2222645-1.82-.82-.6399221-.7771984-1.0054905-1.7438456-1.04-2.75.22-1.96 2.56-2.06 4.06-2.31.15-.02.31-.05.46-.06.4504018-.0679045.9103616.0240874 1.3.26 1.09.72 2.02 1.14 2.63 2.36.4186888.715426.7766109 1.464721 1.07 2.24.140289 1.0152749-.0866793 2.0472716-.64 2.91z" fill="#3b97d3"/><g fill="#71c285"><path id="Shape" d="m10.6 38.56c-.6954724.7798604-1.14739547 1.7462805-1.3 2.78-.15502535 1.8791051-.21510178 3.7648377-.18 5.65-.05710615.7002331-.61022137 1.2575706-1.31 1.32-.7797692.0764051-1.503294.4399495-2.03 1.02-.36450524.6072428-.55800255 1.30176-.56 2.01-.10799024.7701649-.28196357 1.5296254-.52 2.27-5.88392834-5.7120369-6.29606956-15.0202901-.94-21.23l.01.01c.93.4 1.86.8 2.78 1.23.89.41 1.8.78 2.68 1.23.76289153.2863733 1.4430947.7570189 1.98 1.37.59.9-.01 1.66-.61 2.34z"/><path id="Shape" d="m22.84 28.84c-1.010111 1.3465931-2.2996095 2.4587003-3.78 3.26-1.9713013.806815-4.1813329.8032214-6.15-.01-1.16-.59-2.52-1.11-3.27-2.25-.27618881-.4366356-.523388-.8909476-.74-1.36 4.441716-2.0932206 9.6122473-1.9596918 13.94.36z"/><path id="Shape" d="m31 42.5c.0033393 2.3870649-.5478088 4.7422817-1.61 6.88-.7530649-.0463525-1.4730309-.3259509-2.06-.8-.5607039-.5189222-.8826672-1.2460528-.89-2.01-.04-1.63-.05-3.6-1.26-4.85-.85-.9-2.24-.86-3.04-1.84-.6606121-.846374-.8312384-1.9762995-.45-2.98.53-1.44 1.95-2.25 3.07-3.19.71-.57 1.4-1.16 2.1-1.74 2.666144 2.8575259 4.1461294 6.6218367 4.14 10.53z"/><path id="Shape" d="m22.8 50.41c-.41.82-.88 1.68-1.93 1.69-.6320985-.003573-1.2115551-.3527819-1.51-.91-.36-.7-.09-1.49-.63-2.13-.5270427-.4793934-1.2606515-.659974-1.95-.48-.7133425.095709-1.4190886-.2222645-1.82-.82-.6399221-.7771984-1.0054905-1.7438456-1.04-2.75.22-1.96 2.56-2.06 4.06-2.31.15-.02.31-.05.46-.06.4504018-.0679045.9103616.0240874 1.3.26 1.09.72 2.02 1.14 2.63 2.36.4186888.715426.7766109 1.464721 1.07 2.24.140289 1.0152749-.0866793 2.0472716-.64 2.91z"/></g><path id="Shape" d="m55.272 16.785c-.963 1.477-1.863 2.993-2.787 4.494-1.0633968 1.8972093-2.6047973 3.4830832-4.471 4.6-.6975573.3684194-1.4359406.6537038-2.2.85-.187.054-.377.1-.559.173-.2215153.1249205-.4352418.2631748-.64.414-.235.163-.471.326-.714.48-1.3513323.8195034-2.9137942 1.2235943-4.493 1.162-.258 0-.518-.006-.777-.013l-.688-.012c-2.4-.027-8.035-.091-9.414-5.235-.1632421-.5287782-.3603153-1.0465129-.59-1.55-.6019346-1.2786819-1.0155588-2.6377809-1.228-4.035-.2376046-2.7431281.4941824-5.482729 2.068-7.742 1.1310804-1.504668 2.3828893-2.91466704 3.743-4.216l6.8-5.651c.25982-.21611552.612951-.2824405.93348-.175326.3205289.10711451.5628346.3724228.64052.701326l.17.717c.0707325.30023008.2792241.54935513.5622941.6718809s.6074.10403056.8747059-.0498809l3.887-2.236c.2638092-.1517008.583281-.17166853.8639266-.05399742.2806456.1176711.4903439.3595131.5670734.65399742l.187.712c.0743592.28204862.2708508.51612098.5357521.63821938.2649012.1220984.570502.11945063.8332479-.00721938l3.133-1.514c.3597538-.17359716.7889502-.11071054 1.0837794.1587973.2948292.26950783.3959012.6913475.2552206 1.0652027l-.8 2.129c-.1350273.36772487-.0371121.78055141.2486778 1.04846579.2857898.26791438.7040723.33899854 1.0623222.18053421l1.061-.478c.3688592-.16659203.8022658-.08824218 1.0894533.19694785.2871874.28519002.3685603.71803926.2045467 1.08805215l-1.9 4.291c-.1517831.3425046-.0941252.7416632.1483795 1.0272135s.6270552.4070941.9896205.3127865l.82-.212c.3901871-.1014801.8026146.0473983 1.0380182.3747045.2354035.3273062.2453294.7656698.0249818 1.1032955z" fill="#f3d55b"/><path id="Shape" d="m32.3 22.684c-.454-1.693-1.5-3.284-1.712-5.032-.1204952-1.8290628.3926092-3.6438208 1.453-5.139.8225612-1.1902429 1.784377-2.2779507 2.865-3.24.864042-.95806045 1.9131173-1.7312602 3.084-2.273 1.6-.579 3 .513 4.6.332 1.081-.121 2.014-.914 3.108-.893 1.067652.0966276 2.0616342.58542461 2.79 1.372.66.676.58 1.549.787 2.4s.809 1.591.94 2.484c.0261778.5641219.0228399 1.1292267-.01 1.693.025.586.266 1.118.3 1.7-.0074835.5592971-.1683252 1.105813-.465 1.58-.947 1.754-2.113 3.787-3.922 4.786-.7441991.3176894-1.5089254.5849594-2.289.8-.7137267.3476883-1.391352.7650492-2.023 1.246-.9820915.5006449-2.0938788.6887345-3.186.539-2.02-.055-5.641.177-6.32-2.355z" fill="#7f8c8d"/><circle id="Oval" cx="37.244" cy="18.063" fill="#464f5d" r="2.441"/><circle id="Oval" cx="40.661" cy="11.717" fill="#464f5d" r="1"/><circle id="Oval" cx="44.566" cy="10.74" fill="#464f5d" r="1"/><circle id="Oval" cx="44.566" cy="15.622" fill="#464f5d" r="1.953"/><path id="Shape" d="m36 43c-.4043959-.0000863-.7689341-.2437275-.923678-.6173454-.1547439-.373618-.0692299-.8036603.216678-1.0896546l8-8c.3923789-.3789722 1.0160848-.3735524 1.4018186.0121814s.3911536 1.0094397.0121814 1.4018186l-8 8c-.1874927.1875494-.4418052.2929434-.707.293z" fill="#e57e25"/><path id="Shape" d="m33 52c-.4043959-.0000863-.7689341-.2437275-.923678-.6173454-.1547439-.373618-.0692299-.8036603.216678-1.0896546l19-19c.3923789-.3789722 1.0160848-.3735524 1.4018186.0121814s.3911536 1.0094397.0121814 1.4018186l-19 19c-.1874927.1875494-.4418052.2929434-.707.293z" fill="#e57e25"/><path id="Shape" d="m15 23c-.4043959-.0000863-.7689341-.2437275-.923678-.6173454-.1547439-.373618-.0692299-.8036603.216678-1.0896546l8-8c.3923789-.3789722 1.0160848-.3735524 1.4018186.0121814s.3911536 1.0094397.0121814 1.4018186l-8 8c-.1874927.1875494-.4418052.2929434-.707.293z" fill="#e57e25"/><path id="Shape" d="m7 25c-.4043959-.0000863-.76893405-.2437275-.92367798-.6173454-.15474393-.373618-.06922994-.8036603.21667798-1.0896546l19-19c.2510745-.25995658.6228779-.3642126.9725073-.27269716.3496295.09151544.6226744.3645604.7141899.71418984.0915154.34962943-.0127406.72143285-.2726972.97250732l-19 19c-.18749273.1875494-.44180519.2929434-.707.293z" fill="#e57e25"/></g></g></svg>