<?xml version="1.0" encoding="iso-8859-1"?>
<!-- Generator: Adobe Illustrator 19.0.0, SVG Export Plug-In . SVG Version: 6.00 Build 0)  -->
<svg version="1.1" id="Capa_1" xmlns="http://www.w3.org/2000/svg" xmlns:xlink="http://www.w3.org/1999/xlink" x="0px" y="0px"
	 viewBox="0 0 435.843 435.843" style="enable-background:new 0 0 435.843 435.843;" xml:space="preserve">
<polyline style="fill:#FFFFFF;" points="145.234,170.229 163.308,142.296 163.308,258.349 88.214,258.349 116.926,213.979 "/>
<path style="fill:#602F75;" d="M163.308,265.176H88.214c-2.5,0-4.799-1.367-5.997-3.567c-1.196-2.193-1.094-4.867,0.266-6.967
	l28.71-44.373c2.043-3.166,6.277-4.067,9.44-2.028c3.164,2.046,4.07,6.274,2.021,9.44l-21.893,33.84h55.719v-86.106l-5.516,8.52
	c-2.043,3.166-6.27,4.081-9.44,2.028c-3.164-2.046-4.07-6.274-2.021-9.44l18.074-27.933c1.644-2.533,4.767-3.68,7.663-2.84
	c2.903,0.853,4.893,3.519,4.893,6.547v116.053C170.134,262.123,167.078,265.176,163.308,265.176z"/>
<polyline style="fill:#FFFFFF;" points="294.608,176.41 272.534,142.296 272.534,258.349 347.628,258.349 318.908,213.962 "/>
<path style="fill:#602F75;" d="M347.628,265.176h-75.093c-3.773,0-6.827-3.053-6.827-6.827V142.296c0-3.026,1.993-5.693,4.893-6.547
	c2.927-0.853,6.026,0.307,7.666,2.84l22.074,34.113c2.046,3.166,1.14,7.386-2.028,9.44c-3.161,2.039-7.386,1.147-9.44-2.028
	l-9.513-14.706v86.113h55.719l-21.907-33.853c-2.046-3.166-1.14-7.393,2.028-9.44c3.168-2.046,7.386-1.14,9.44,2.028l28.72,44.387
	c1.36,2.099,1.459,4.774,0.266,6.967C352.429,263.811,350.128,265.176,347.628,265.176z"/>
<path style="fill:#00E7FF;" d="M265.604,278.829c25.742-43.145,41.066-98.901,41.066-143.36c0-67.476-35.135-92.902-88.747-128.642
	c-53.612,35.739-88.747,61.165-88.747,128.642c0,44.459,15.324,100.215,41.066,143.36H265.604z"/>
<path style="fill:#602F75;" d="M265.602,285.656h-95.36c-2.403,0-4.63-1.266-5.864-3.326c-25.923-43.453-42.03-99.727-42.03-146.86
	c0-69.593,34.881-96.381,91.786-134.32c2.294-1.533,5.28-1.533,7.574,0c56.907,37.934,91.786,64.72,91.786,134.32
	c0,47.126-16.108,103.4-42.034,146.86C270.236,284.39,268.008,285.656,265.602,285.656z M174.155,272.003h87.533
	c23.247-40.453,38.153-93.594,38.153-136.533c0-61.307-29.546-85.347-81.92-120.426c-52.374,35.081-81.92,59.127-81.92,120.426
	C136.001,178.418,150.905,231.549,174.155,272.003z"/>
<path style="fill:#EA3457;" d="M217.921,80.856c23.764,0,44.913-11.068,58.672-28.298c-15.024-16.225-35.046-29.979-58.672-45.73
	c-23.625,15.751-43.648,29.505-58.672,45.73C173.008,69.788,194.157,80.856,217.921,80.856z"/>
<path style="fill:#602F75;" d="M217.921,87.683c-25.016,0-48.346-11.254-64.007-30.867c-2.109-2.64-1.969-6.42,0.326-8.9
	c15.363-16.587,35.357-30.413,59.894-46.766c2.294-1.533,5.28-1.533,7.574,0c24.54,16.353,44.527,30.181,59.894,46.766
	c2.294,2.48,2.434,6.26,0.326,8.9C266.269,76.431,242.936,87.683,217.921,87.683z M168.511,52.803
	c12.87,13.559,30.57,21.228,49.41,21.228s36.54-7.666,49.413-21.228c-13.013-12.86-29.594-24.499-49.413-37.767
	C198.102,28.304,181.521,39.944,168.511,52.803z"/>
<g>
	<polygon style="fill:#EA3457;" points="265.708,326.616 170.134,326.616 217.921,429.016 	"/>
	<path style="fill:#EA3457;" d="M217.921,435.843c-2.654,0-5.067-1.533-6.187-3.941l-47.787-102.4
		c-0.986-2.113-0.823-4.588,0.43-6.554c1.253-1.966,3.424-3.161,5.757-3.161h95.573c2.333,0,4.507,1.193,5.76,3.161
		c1.253,1.968,1.413,4.441,0.427,6.554l-47.787,102.4C222.988,434.31,220.575,435.843,217.921,435.843z M180.856,333.443
		l37.067,79.433l37.067-79.433L180.856,333.443L180.856,333.443z"/>
</g>
<g>
	<polygon style="fill:#FFE600;" points="240.222,326.616 195.622,326.616 217.921,374.403 	"/>
	<path style="fill:#FFE600;" d="M217.921,381.229c-2.654,0-5.067-1.533-6.187-3.941l-22.299-47.787
		c-0.986-2.113-0.823-4.588,0.43-6.554c1.253-1.966,3.424-3.161,5.757-3.161h44.6c2.333,0,4.507,1.193,5.76,3.161
		c1.253,1.968,1.413,4.441,0.427,6.554l-22.299,47.787C222.988,379.697,220.575,381.229,217.921,381.229z M206.341,333.443
		l11.58,24.813l11.58-24.813H206.341z"/>
</g>
<circle style="fill:#FFFFFF;" cx="217.923" cy="142.299" r="20.48"/>
<path style="fill:#602F75;" d="M217.921,169.603c-15.06,0-27.307-12.247-27.307-27.307s12.247-27.307,27.307-27.307
	s27.307,12.247,27.307,27.307S232.982,169.603,217.921,169.603z M217.921,128.643c-7.526,0-13.653,6.127-13.653,13.653
	c0,7.526,6.127,13.653,13.653,13.653s13.653-6.127,13.653-13.653C231.574,134.77,225.449,128.643,217.921,128.643z"/>
<rect x="170.136" y="278.833" style="fill:#FFFFFF;" width="95.573" height="47.787"/>
<path style="fill:#602F75;" d="M265.708,333.443h-95.573c-3.77,0-6.827-3.053-6.827-6.827v-47.787c0-3.773,3.057-6.827,6.827-6.827
	h95.573c3.773,0,6.827,3.053,6.827,6.827v47.787C272.534,330.389,269.481,333.443,265.708,333.443z M176.961,319.789h81.92v-34.133
	h-81.92L176.961,319.789L176.961,319.789z"/>
<g>
</g>
<g>
</g>
<g>
</g>
<g>
</g>
<g>
</g>
<g>
</g>
<g>
</g>
<g>
</g>
<g>
</g>
<g>
</g>
<g>
</g>
<g>
</g>
<g>
</g>
<g>
</g>
<g>
</g>
</svg>
